<?xml version="1.0" encoding="UTF-8" standalone="no"?>
<svg
   xmlns:dc="http://purl.org/dc/elements/1.1/"
   xmlns:cc="http://creativecommons.org/ns#"
   xmlns:rdf="http://www.w3.org/1999/02/22-rdf-syntax-ns#"
   xmlns:svg="http://www.w3.org/2000/svg"
   xmlns="http://www.w3.org/2000/svg"
   xmlns:sodipodi="http://sodipodi.sourceforge.net/DTD/sodipodi-0.dtd"
   xmlns:inkscape="http://www.inkscape.org/namespaces/inkscape"
   height="512px"
   id="Layer_1"
   style="enable-background:new 0 0 512 512;"
   version="1.1"
   viewBox="0 0 512 512"
   width="512px"
   xml:space="preserve"
   sodipodi:docname="closeicon.svg"
   inkscape:version="1.0.2-2 (e86c870879, 2021-01-15)"><metadata
     id="metadata11"><rdf:RDF><cc:Work
         rdf:about=""><dc:format>image/svg+xml</dc:format><dc:type
           rdf:resource="http://purl.org/dc/dcmitype/StillImage" /></cc:Work></rdf:RDF></metadata><defs
     id="defs9" /><sodipodi:namedview
     pagecolor="#ffffff"
     bordercolor="#666666"
     borderopacity="1"
     objecttolerance="10"
     gridtolerance="10"
     guidetolerance="10"
     inkscape:pageopacity="0"
     inkscape:pageshadow="2"
     inkscape:window-width="1646"
     inkscape:window-height="1136"
     id="namedview7"
     showgrid="false"
     inkscape:zoom="1.96875"
     inkscape:cx="256"
     inkscape:cy="256"
     inkscape:window-x="0"
     inkscape:window-y="0"
     inkscape:window-maximized="0"
     inkscape:current-layer="Layer_1" /><g
     id="g4"
     style="fill:#0000ff"><path
       d="M 256,33 C 132.3,33 32,133.3 32,257 32,380.7 132.3,481 256,481 379.7,481 480,380.7 480,257 480,133.3 379.7,33 256,33 Z m 108.3,299.5 c 1.5,1.5 2.3,3.5 2.3,5.6 0,2.1 -0.8,4.2 -2.3,5.6 l -21.6,21.7 c -1.6,1.6 -3.6,2.3 -5.6,2.3 -2,0 -4.1,-0.8 -5.6,-2.3 L 256,289.8 180.6,365.5 c -1.5,1.6 -3.6,2.3 -5.6,2.3 -2,0 -4.1,-0.8 -5.6,-2.3 l -21.6,-21.7 c -1.5,-1.5 -2.3,-3.5 -2.3,-5.6 0,-2.1 0.8,-4.2 2.3,-5.6 l 75.7,-76 -75.9,-75 c -3.1,-3.1 -3.1,-8.2 0,-11.3 l 21.6,-21.7 c 1.5,-1.5 3.5,-2.3 5.6,-2.3 2.1,0 4.1,0.8 5.6,2.3 l 75.7,74.7 75.7,-74.7 c 1.5,-1.5 3.5,-2.3 5.6,-2.3 2.1,0 4.1,0.8 5.6,2.3 l 21.6,21.7 c 3.1,3.1 3.1,8.2 0,11.3 l -75.9,75 z"
       id="path2"
       style="fill:#0000ff" /></g><path
     style="fill:#000080;stroke-width:0.507937"
     d="m 239.74603,480.20621 c -0.97778,-0.10801 -4.29206,-0.44552 -7.36508,-0.75002 -45.8515,-4.54341 -91.501,-24.99105 -126.43099,-56.63188 C 43.959808,366.67144 18.57816,281.52752 39.616858,200.30683 62.527848,111.85809 139.03425,45.286301 229.81989,34.802296 c 69.63299,-8.041279 137.84047,16.284177 186.68914,66.580644 50.01477,51.49714 71.8785,122.2988 59.90214,193.98214 -1.40033,8.38158 -5.04282,22.95355 -7.87192,31.49206 -15.40495,46.49371 -45.26967,86.36805 -85.55512,114.23025 -22.43164,15.51415 -46.94793,26.5606 -73.39683,33.07085 -18.94142,4.66232 -29.51176,5.92625 -51.04762,6.10395 -9.35873,0.0772 -17.81587,0.052 -18.79365,-0.056 z M 177.51601,367.75297 c 0.65312,-0.005 14.64898,-13.6435 39.74766,-38.73421 l 38.73959,-38.72727 38.22059,38.16661 c 21.02133,20.99164 38.71986,38.41891 39.33006,38.72727 1.43073,0.72301 5.49501,0.72239 6.92393,-10e-4 1.58198,-0.80094 24.6491,-23.79631 25.52421,-25.44481 0.85866,-1.61754 0.94789,-4.84135 0.18922,-6.83679 -0.29639,-0.77957 -17.66782,-18.60823 -38.60317,-39.61926 -20.93536,-21.01106 -38.06429,-38.40699 -38.06429,-38.65766 0,-0.25066 16.97143,-17.19398 37.71429,-37.65182 22.51797,-22.20857 38.17478,-38.03415 38.85714,-39.27604 1.34085,-2.44033 1.43796,-4.28644 0.36236,-6.8889 -0.85115,-2.05938 -22.80804,-24.51176 -25.22603,-25.79528 -1.88613,-1.00121 -5.91943,-0.91876 -7.86632,0.1608 -0.88167,0.48889 -18.53511,17.65084 -39.22988,38.13766 -20.69477,20.48683 -37.85268,37.17255 -38.12871,37.07937 -0.27601,-0.0932 -17.55106,-16.96941 -38.38898,-37.50274 -20.83792,-20.53333 -38.38365,-37.61095 -38.9905,-37.95025 -0.60685,-0.33932 -2.38336,-0.62503 -3.94779,-0.63492 -2.34681,-0.0148 -3.19099,0.23636 -4.8254,1.43599 -3.11751,2.28821 -23.50671,23.20683 -24.07412,24.69924 -0.73143,1.9238 -0.62856,5.66814 0.1997,7.26881 0.39034,0.75439 17.89265,18.38302 38.89401,39.17475 l 38.18428,37.80315 -38.08344,38.13336 c -20.94589,20.97335 -38.4482,38.86487 -38.89401,39.75893 -0.9998,2.00506 -1.03937,4.73798 -0.0999,6.89868 0.39087,0.89896 6.1623,7.04853 12.8254,13.6657 12.24887,12.16444 13.87903,13.41789 16.68615,12.83024 0.55873,-0.11697 1.46951,-0.21579 2.02395,-0.2196 z"
     id="path13" /></svg>
