<?xml version="1.0" encoding="UTF-8" standalone="no"?>
<svg
   xmlns:dc="http://purl.org/dc/elements/1.1/"
   xmlns:cc="http://creativecommons.org/ns#"
   xmlns:rdf="http://www.w3.org/1999/02/22-rdf-syntax-ns#"
   xmlns:svg="http://www.w3.org/2000/svg"
   xmlns="http://www.w3.org/2000/svg"
   xmlns:sodipodi="http://sodipodi.sourceforge.net/DTD/sodipodi-0.dtd"
   xmlns:inkscape="http://www.inkscape.org/namespaces/inkscape"
   version="1.1"
   id="svg388"
   xml:space="preserve"
   width="186.53333"
   height="187.92"
   viewBox="0 0 186.53333 187.92"
   sodipodi:docname="logosimple.svg"
   inkscape:version="1.0.2-2 (e86c870879, 2021-01-15)"><metadata
     id="metadata394"><rdf:RDF><cc:Work
         rdf:about=""><dc:format>image/svg+xml</dc:format><dc:type
           rdf:resource="http://purl.org/dc/dcmitype/StillImage" /><dc:title></dc:title></cc:Work></rdf:RDF></metadata><defs
     id="defs392"><clipPath
       clipPathUnits="userSpaceOnUse"
       id="clipPath452"><path
         d="M 225,315 H 387 V 477 H 225 Z"
         clip-rule="evenodd"
         id="path450" /></clipPath><clipPath
       clipPathUnits="userSpaceOnUse"
       id="clipPath464"><path
         d="M 225,315 H 387 V 477 H 225 Z"
         clip-rule="evenodd"
         id="path462" /></clipPath></defs><sodipodi:namedview
     pagecolor="#ffffff"
     bordercolor="#666666"
     borderopacity="1"
     objecttolerance="10"
     gridtolerance="10"
     guidetolerance="10"
     inkscape:pageopacity="0"
     inkscape:pageshadow="2"
     inkscape:window-width="1787"
     inkscape:window-height="1165"
     id="namedview390"
     showgrid="false"
     inkscape:zoom="3.8181818"
     inkscape:cx="93.800008"
     inkscape:cy="93.693318"
     inkscape:window-x="0"
     inkscape:window-y="0"
     inkscape:window-maximized="0"
     inkscape:current-layer="g396" /><g
     id="g396"
     inkscape:groupmode="layer"
     inkscape:label="logosimple"
     transform="matrix(1.3333333,0,0,-1.3333333,-314.19999,621.69332)"><path
       d="m 362.59,378.64 c -0.47,0.08 -0.89,0.22 -1.24,0.41 -0.36,0.18 -0.66,0.4 -0.91,0.66 -0.25,0.25 -0.46,0.52 -0.61,0.82 -0.15,0.3 -0.28,0.59 -0.35,0.9 -0.08,0.31 -0.12,0.63 -0.12,0.92 -0.01,0.31 0.01,0.6 0.05,0.86 l 0.9,4.98 c 0.08,0.48 0.22,0.89 0.41,1.24 0.18,0.36 0.41,0.66 0.66,0.9 0.26,0.25 0.52,0.46 0.83,0.61 0.3,0.16 0.6,0.28 0.91,0.35 0.31,0.08 0.62,0.12 0.92,0.12 0.3,0.02 0.59,0 0.84,-0.05 l 3.74,-0.67 c 0.71,-0.13 1.28,-0.36 1.73,-0.72 0.45,-0.34 0.79,-0.73 1.03,-1.18 0.24,-0.44 0.38,-0.89 0.43,-1.37 0.06,-0.48 0.05,-0.91 -0.02,-1.29 l -0.89,-4.98 -2.77,0.5 0.89,4.96 c 0.07,0.37 0.02,0.66 -0.12,0.88 -0.16,0.23 -0.42,0.38 -0.78,0.44 l -3.72,0.67 c -0.37,0.06 -0.67,0.02 -0.9,-0.14 -0.22,-0.14 -0.36,-0.4 -0.43,-0.76 l -0.9,-4.98 c -0.06,-0.38 -0.02,-0.68 0.14,-0.9 0.16,-0.21 0.42,-0.36 0.78,-0.42 l 12.46,-2.24 -0.5,-2.76 z"
       style="fill:#0000ff;fill-opacity:1;fill-rule:evenodd;stroke:none"
       id="path398" /><path
       d="m 360.43,363.47 c -0.35,0.15 -0.71,0.38 -1.06,0.68 -0.36,0.31 -0.66,0.68 -0.89,1.11 -0.23,0.44 -0.36,0.94 -0.41,1.49 -0.03,0.55 0.09,1.16 0.37,1.8 l 2.03,4.64 2.44,-1.07 -2.03,-4.63 c -0.15,-0.35 -0.16,-0.67 -0.02,-0.96 0.12,-0.28 0.34,-0.49 0.66,-0.63 0.34,-0.15 0.65,-0.16 0.93,-0.03 0.28,0.14 0.49,0.35 0.63,0.66 l 2.02,4.63 c 0.16,0.35 0.17,0.67 0.04,0.95 -0.13,0.29 -0.36,0.5 -0.67,0.64 l -3.59,1.57 c -0.35,0.15 -0.66,0.16 -0.95,0.02 -0.27,-0.12 -0.49,-0.35 -0.63,-0.66 l -2.02,-4.62 -2.45,1.07 2.03,4.64 c 0.15,0.35 0.38,0.71 0.69,1.06 0.31,0.36 0.67,0.66 1.11,0.88 0.43,0.24 0.93,0.37 1.49,0.41 0.55,0.04 1.15,-0.08 1.8,-0.36 l 3.6,-1.58 c 0.36,-0.15 0.72,-0.38 1.08,-0.69 0.35,-0.31 0.65,-0.67 0.88,-1.11 0.22,-0.43 0.36,-0.93 0.4,-1.49 0.04,-0.55 -0.08,-1.15 -0.36,-1.79 l -2.03,-4.64 c -0.16,-0.36 -0.38,-0.72 -0.69,-1.08 -0.31,-0.35 -0.68,-0.64 -1.11,-0.88 -0.44,-0.22 -0.93,-0.36 -1.48,-0.4 -0.56,-0.04 -1.16,0.08 -1.81,0.37 z"
       style="fill:#0000ff;fill-opacity:1;fill-rule:evenodd;stroke:none"
       id="path400" /><path
       d="m 348.48,353.43 c -0.21,0.17 -0.42,0.36 -0.62,0.58 -0.19,0.22 -0.37,0.47 -0.53,0.75 -0.15,0.28 -0.28,0.58 -0.38,0.9 -0.09,0.33 -0.12,0.66 -0.11,1.02 0.01,0.35 0.07,0.73 0.2,1.11 0.13,0.37 0.34,0.76 0.63,1.15 l 3.02,4.06 c 0.16,0.21 0.36,0.42 0.58,0.61 0.22,0.2 0.47,0.38 0.75,0.54 0.28,0.15 0.58,0.27 0.91,0.37 0.33,0.09 0.66,0.12 1.02,0.12 0.35,-0.01 0.72,-0.08 1.11,-0.21 0.37,-0.13 0.75,-0.34 1.14,-0.63 l 10.16,-7.56 -1.68,-2.25 -10.15,7.56 c -0.28,0.21 -0.56,0.28 -0.85,0.23 -0.3,-0.05 -0.54,-0.2 -0.74,-0.46 l -3.02,-4.06 c -0.21,-0.29 -0.29,-0.57 -0.24,-0.85 0.04,-0.28 0.21,-0.53 0.48,-0.73 l 3.05,-2.27 c 0.28,-0.21 0.56,-0.28 0.85,-0.24 0.28,0.05 0.52,0.21 0.72,0.48 l 3.02,4.05 2.25,-1.67 -3.02,-4.06 c -0.17,-0.22 -0.36,-0.42 -0.58,-0.62 -0.22,-0.2 -0.48,-0.38 -0.76,-0.54 -0.28,-0.16 -0.57,-0.28 -0.89,-0.37 -0.33,-0.09 -0.66,-0.13 -1.02,-0.12 -0.35,0.01 -0.73,0.09 -1.1,0.22 -0.38,0.13 -0.76,0.33 -1.15,0.62 z"
       style="fill:#0000ff;fill-opacity:1;fill-rule:evenodd;stroke:none"
       id="path402" /><path
       d="m 335.7,345.84 c -0.13,0.16 -0.23,0.32 -0.28,0.5 -0.05,0.18 -0.07,0.36 -0.06,0.53 0.02,0.18 0.07,0.35 0.15,0.51 0.09,0.17 0.21,0.32 0.36,0.44 l 4.89,4.04 c 0.26,0.22 0.57,0.43 0.92,0.62 0.36,0.19 0.74,0.34 1.15,0.44 0.4,0.11 0.82,0.17 1.27,0.19 0.45,0.01 0.89,-0.04 1.35,-0.16 0.45,-0.12 0.89,-0.33 1.33,-0.62 0.45,-0.29 0.88,-0.66 1.28,-1.15 l 4.13,-4.99 -2.16,-1.79 -4.13,4.99 c -0.23,0.28 -0.49,0.49 -0.77,0.63 -0.28,0.15 -0.58,0.24 -0.88,0.26 -0.29,0.02 -0.6,-0.02 -0.89,-0.13 -0.3,-0.09 -0.57,-0.25 -0.83,-0.46 l -3.78,-3.13 5.64,-6.83 -2.16,-1.79 z"
       style="fill:#0000ff;fill-opacity:1;fill-rule:evenodd;stroke:none"
       id="path404" /><path
       d="m 321.82,341.89 c -0.21,0.44 -0.33,0.86 -0.39,1.26 -0.05,0.39 -0.06,0.77 0,1.13 0.07,0.35 0.17,0.67 0.32,0.97 0.16,0.3 0.33,0.56 0.54,0.8 0.21,0.24 0.44,0.46 0.68,0.64 0.24,0.18 0.48,0.33 0.73,0.45 l 4.57,2.16 1.2,-2.54 -4.57,-2.16 c -0.34,-0.16 -0.56,-0.37 -0.65,-0.63 -0.08,-0.25 -0.05,-0.55 0.11,-0.88 l 3.79,-8.01 c 0.15,-0.33 0.36,-0.54 0.61,-0.64 0.25,-0.09 0.55,-0.05 0.89,0.11 l 4.58,2.16 c 0.31,0.15 0.51,0.37 0.6,0.64 0.1,0.28 0.07,0.57 -0.07,0.86 l -1.62,3.43 c -0.16,0.34 -0.37,0.55 -0.63,0.64 -0.26,0.09 -0.55,0.06 -0.89,-0.1 l -4.56,-2.16 -1.2,2.54 4.58,2.16 c 0.24,0.12 0.51,0.21 0.8,0.28 0.29,0.07 0.59,0.11 0.91,0.12 0.32,0 0.65,-0.03 0.98,-0.1 0.33,-0.07 0.64,-0.2 0.95,-0.37 0.31,-0.18 0.6,-0.41 0.87,-0.71 0.27,-0.3 0.52,-0.66 0.72,-1.1 l 1.63,-3.43 c 0.11,-0.25 0.2,-0.51 0.27,-0.8 0.08,-0.29 0.12,-0.6 0.13,-0.92 0,-0.32 -0.04,-0.64 -0.11,-0.97 -0.07,-0.33 -0.2,-0.64 -0.37,-0.95 -0.18,-0.31 -0.41,-0.6 -0.7,-0.87 -0.29,-0.27 -0.65,-0.51 -1.09,-0.72 l -4.58,-2.17 c -0.24,-0.11 -0.51,-0.2 -0.81,-0.28 -0.29,-0.07 -0.6,-0.11 -0.92,-0.12 -0.32,0 -0.63,0.03 -0.96,0.1 -0.34,0.07 -0.65,0.2 -0.96,0.37 -0.31,0.18 -0.6,0.42 -0.87,0.71 -0.27,0.29 -0.51,0.65 -0.72,1.09 z"
       style="fill:#0000ff;fill-opacity:1;fill-rule:evenodd;stroke:none"
       id="path406" /><path
       d="m 312.21,325.33 -5.69,4.23 c -0.15,0.12 -0.28,0.26 -0.38,0.43 -0.09,0.18 -0.15,0.36 -0.17,0.56 -0.02,0.21 0.01,0.41 0.08,0.6 0.07,0.19 0.17,0.36 0.31,0.5 l 4.79,5.03 4.02,0.36 -5.9,-6.19 6.92,-5.16 z"
       style="fill:#000080;fill-opacity:1;fill-rule:evenodd;stroke:none"
       id="path408" /><path
       d="m 285.88,332.53 6.14,-1.46 c 0.37,-0.09 0.67,-0.06 0.91,0.07 0.23,0.14 0.39,0.4 0.47,0.75 l 1.8,7.53 2.73,-0.65 -1.8,-7.53 c -0.11,-0.47 -0.27,-0.88 -0.48,-1.22 -0.2,-0.34 -0.45,-0.63 -0.71,-0.87 -0.27,-0.23 -0.55,-0.42 -0.86,-0.56 -0.31,-0.14 -0.62,-0.23 -0.93,-0.29 -0.32,-0.06 -0.62,-0.08 -0.93,-0.07 -0.3,0.01 -0.58,0.04 -0.83,0.1 l -6.16,1.47 z"
       style="fill:#0000ff;fill-opacity:1;fill-rule:evenodd;stroke:none"
       id="path410" /><path
       d="m 272.66,339.77 c 0.17,0.35 0.41,0.7 0.73,1.03 0.33,0.35 0.71,0.63 1.15,0.84 0.45,0.21 0.95,0.32 1.5,0.34 0.56,0.01 1.16,-0.14 1.79,-0.45 l 4.54,-2.23 -1.17,-2.39 -4.55,2.23 c -0.33,0.17 -0.66,0.19 -0.95,0.07 -0.28,-0.11 -0.51,-0.32 -0.66,-0.64 -0.16,-0.32 -0.18,-0.64 -0.07,-0.92 0.12,-0.29 0.33,-0.51 0.63,-0.66 l 4.54,-2.23 c 0.34,-0.17 0.66,-0.19 0.95,-0.08 0.28,0.12 0.51,0.33 0.66,0.64 l 1.73,3.52 c 0.17,0.34 0.19,0.65 0.07,0.94 -0.12,0.29 -0.33,0.51 -0.64,0.66 l -4.52,2.23 1.18,2.4 4.54,-2.23 c 0.35,-0.18 0.7,-0.42 1.03,-0.74 0.35,-0.33 0.63,-0.71 0.83,-1.15 0.22,-0.44 0.33,-0.95 0.34,-1.51 0.02,-0.55 -0.13,-1.15 -0.44,-1.78 l -1.73,-3.53 c -0.18,-0.35 -0.42,-0.7 -0.75,-1.04 -0.32,-0.34 -0.7,-0.62 -1.15,-0.83 -0.44,-0.21 -0.94,-0.32 -1.5,-0.33 -0.55,-0.02 -1.15,0.13 -1.78,0.44 l -4.54,2.23 c -0.35,0.17 -0.7,0.41 -1.04,0.74 -0.34,0.32 -0.62,0.7 -0.83,1.14 -0.2,0.45 -0.32,0.95 -0.34,1.5 -0.01,0.56 0.14,1.16 0.45,1.79 z"
       style="fill:#0000ff;fill-opacity:1;fill-rule:evenodd;stroke:none"
       id="path412" /><path
       d="m 263.31,352.32 c 0.31,0.37 0.64,0.66 0.98,0.87 0.34,0.22 0.67,0.37 1.02,0.47 0.34,0.09 0.68,0.13 1.02,0.11 0.33,-0.01 0.65,-0.05 0.96,-0.14 0.3,-0.09 0.6,-0.21 0.86,-0.36 0.26,-0.14 0.5,-0.29 0.7,-0.47 l 3.87,-3.26 -1.8,-2.14 -3.87,3.26 c -0.29,0.24 -0.57,0.35 -0.84,0.32 -0.26,-0.03 -0.52,-0.19 -0.75,-0.47 l -2.44,-2.89 c -0.24,-0.29 -0.36,-0.58 -0.34,-0.84 0.03,-0.26 0.19,-0.52 0.47,-0.75 l 3.85,-3.25 c 0.29,-0.24 0.58,-0.36 0.84,-0.34 0.28,0.02 0.53,0.18 0.77,0.46 l 7.33,8.71 2.15,-1.81 -7.34,-8.71 c -0.31,-0.37 -0.64,-0.66 -0.97,-0.87 -0.33,-0.22 -0.69,-0.37 -1.03,-0.46 -0.35,-0.09 -0.68,-0.13 -1.02,-0.12 -0.34,0.02 -0.66,0.07 -0.96,0.16 -0.31,0.09 -0.59,0.21 -0.87,0.35 -0.25,0.15 -0.49,0.3 -0.69,0.47 l -3.87,3.26 c -0.37,0.31 -0.66,0.64 -0.87,0.97 -0.22,0.34 -0.38,0.68 -0.47,1.03 -0.09,0.34 -0.13,0.68 -0.11,1.01 0.01,0.34 0.06,0.65 0.15,0.96 0.09,0.31 0.21,0.6 0.35,0.87 0.14,0.25 0.3,0.49 0.47,0.69 z"
       style="fill:#0000ff;fill-opacity:1;fill-rule:evenodd;stroke:none"
       id="path414" /><path
       d="m 251.49,361.63 c 0.31,0.23 0.69,0.43 1.13,0.58 0.45,0.15 0.92,0.22 1.4,0.2 0.5,-0.02 1,-0.15 1.49,-0.39 0.5,-0.25 0.96,-0.66 1.38,-1.23 l 2.98,-4.09 -2.15,-1.57 -2.98,4.09 c -0.23,0.3 -0.5,0.48 -0.81,0.5 -0.31,0.04 -0.61,-0.05 -0.89,-0.25 -0.29,-0.22 -0.46,-0.49 -0.49,-0.79 -0.03,-0.31 0.05,-0.6 0.25,-0.87 l 2.99,-4.09 c 0.22,-0.31 0.49,-0.48 0.8,-0.51 0.31,-0.03 0.61,0.06 0.89,0.26 l 3.16,2.31 c 0.31,0.22 0.47,0.49 0.5,0.81 0.03,0.3 -0.06,0.6 -0.26,0.88 l -2.97,4.07 2.16,1.58 2.98,-4.09 c 0.23,-0.32 0.43,-0.69 0.58,-1.13 0.15,-0.45 0.23,-0.92 0.19,-1.41 -0.01,-0.49 -0.14,-0.99 -0.39,-1.49 -0.24,-0.5 -0.65,-0.96 -1.22,-1.37 l -3.18,-2.32 c -0.31,-0.23 -0.69,-0.43 -1.14,-0.58 -0.44,-0.15 -0.91,-0.23 -1.4,-0.2 -0.49,0.02 -0.98,0.15 -1.49,0.4 -0.49,0.24 -0.95,0.65 -1.37,1.22 l -2.98,4.09 c -0.23,0.31 -0.43,0.69 -0.58,1.14 -0.15,0.44 -0.22,0.9 -0.21,1.39 0.03,0.49 0.16,0.99 0.4,1.49 0.25,0.5 0.66,0.96 1.23,1.37 z"
       style="fill:#0000ff;fill-opacity:1;fill-rule:evenodd;stroke:none"
       id="path416" /><path
       d="m 249.19,376.29 c 0.35,0.16 0.77,0.27 1.23,0.32 0.47,0.05 0.94,0.02 1.41,-0.11 0.48,-0.13 0.93,-0.36 1.37,-0.7 0.43,-0.35 0.79,-0.85 1.08,-1.5 l 2.03,-4.63 c 0.15,-0.36 0.26,-0.77 0.31,-1.23 0.05,-0.47 0.02,-0.95 -0.11,-1.42 -0.12,-0.47 -0.36,-0.93 -0.71,-1.37 -0.34,-0.43 -0.84,-0.79 -1.48,-1.07 -0.36,-0.16 -0.77,-0.27 -1.24,-0.32 -0.47,-0.05 -0.95,-0.03 -1.43,0.11 -0.47,0.12 -0.92,0.36 -1.36,0.71 -0.43,0.34 -0.79,0.84 -1.07,1.48 l -2.03,4.64 2.45,1.07 2.03,-4.63 c 0.15,-0.35 0.38,-0.58 0.67,-0.68 0.3,-0.09 0.61,-0.07 0.93,0.07 0.33,0.15 0.54,0.37 0.63,0.68 0.09,0.3 0.08,0.6 -0.05,0.9 l -2.03,4.62 c -0.15,0.35 -0.38,0.57 -0.67,0.67 -0.29,0.1 -0.6,0.08 -0.91,-0.06 l -3.59,-1.57 c -0.34,-0.15 -0.56,-0.36 -0.67,-0.66 -0.1,-0.29 -0.09,-0.6 0.05,-0.92 l 2.47,-5.64 -2.44,-1.07 -2.47,5.64 c -0.16,0.36 -0.27,0.77 -0.32,1.24 -0.05,0.46 -0.02,0.94 0.1,1.41 0.14,0.47 0.37,0.93 0.71,1.36 0.35,0.44 0.86,0.8 1.5,1.08 z"
       style="fill:#0000ff;fill-opacity:1;fill-rule:evenodd;stroke:none"
       id="path418" /><path
       d="m 241.73,387.61 0.98,-4.8 8.68,1.77 0.57,-2.78 -8.68,-1.77 0.72,-3.57 -2.75,-0.56 -0.72,3.57 -3.74,-0.76 -0.56,2.78 3.73,0.76 -0.98,4.8 z"
       style="fill:#0000ff;fill-opacity:1;fill-rule:evenodd;stroke:none"
       id="path420" /><path
       d="m 236.03,402.5 5.16,4.78 c 0.14,0.13 0.3,0.23 0.49,0.3 0.19,0.05 0.38,0.08 0.58,0.06 0.2,-0.02 0.39,-0.08 0.56,-0.18 0.18,-0.11 0.33,-0.24 0.44,-0.4 l 4.03,-5.59 -0.38,-3.99 -4.96,6.89 -6.3,-5.82 z"
       style="fill:#000080;fill-opacity:1;fill-rule:evenodd;stroke:none"
       id="path422" /><path
       d="m 256.24,424.74 -3.01,-6.92 c -0.16,-0.36 -0.39,-0.72 -0.7,-1.08 -0.31,-0.37 -0.68,-0.66 -1.12,-0.89 -0.44,-0.24 -0.93,-0.38 -1.5,-0.41 -0.56,-0.05 -1.17,0.08 -1.83,0.36 l -3.45,1.51 c -0.25,0.11 -0.49,0.25 -0.73,0.42 -0.24,0.17 -0.48,0.38 -0.7,0.61 -0.21,0.23 -0.39,0.5 -0.55,0.79 -0.16,0.29 -0.27,0.61 -0.34,0.96 -0.07,0.34 -0.09,0.71 -0.05,1.1 0.04,0.39 0.16,0.81 0.35,1.25 l 3.02,6.93 2.55,-1.12 -3.02,-6.92 c -0.14,-0.33 -0.17,-0.63 -0.07,-0.87 0.09,-0.25 0.32,-0.45 0.67,-0.61 l 3.44,-1.49 c 0.33,-0.15 0.62,-0.17 0.88,-0.07 0.25,0.1 0.45,0.32 0.6,0.66 l 3.01,6.9 z"
       style="fill:#0000ff;fill-opacity:1;fill-rule:evenodd;stroke:none"
       id="path424" /><path
       d="m 255.73,439.23 -3.65,-5.09 c -0.22,-0.3 -0.31,-0.6 -0.27,-0.86 0.04,-0.27 0.21,-0.51 0.5,-0.72 l 6.25,-4.48 -1.63,-2.26 -6.24,4.48 c -0.39,0.28 -0.7,0.58 -0.94,0.9 -0.23,0.31 -0.41,0.65 -0.53,0.98 -0.11,0.34 -0.18,0.66 -0.19,1 -0.01,0.33 0.02,0.66 0.08,0.96 0.07,0.32 0.16,0.61 0.28,0.89 0.13,0.26 0.26,0.51 0.41,0.72 l 3.67,5.11 z"
       style="fill:#0000ff;fill-opacity:1;fill-rule:evenodd;stroke:none"
       id="path426" /><path
       d="m 267.39,448.95 c 0.26,-0.29 0.49,-0.64 0.68,-1.06 0.2,-0.43 0.33,-0.88 0.36,-1.36 0.03,-0.49 -0.05,-1 -0.23,-1.51 -0.2,-0.52 -0.55,-1.02 -1.07,-1.49 l -3.72,-3.38 -1.78,1.96 3.72,3.38 c 0.28,0.25 0.42,0.54 0.41,0.85 0,0.3 -0.11,0.59 -0.34,0.84 -0.25,0.27 -0.53,0.41 -0.83,0.41 -0.32,-0.01 -0.59,-0.12 -0.84,-0.34 l -3.72,-3.38 c -0.27,-0.26 -0.42,-0.55 -0.42,-0.85 0.01,-0.31 0.13,-0.6 0.36,-0.85 l 2.61,-2.88 c 0.26,-0.27 0.54,-0.41 0.85,-0.4 0.3,0 0.59,0.12 0.84,0.35 l 3.7,3.36 1.79,-1.96 -3.71,-3.38 c -0.29,-0.26 -0.64,-0.5 -1.06,-0.69 -0.43,-0.2 -0.88,-0.32 -1.37,-0.34 -0.48,-0.04 -0.99,0.03 -1.51,0.23 -0.52,0.18 -1.01,0.54 -1.48,1.05 l -2.63,2.9 c -0.26,0.28 -0.5,0.63 -0.7,1.06 -0.19,0.42 -0.31,0.87 -0.34,1.37 -0.03,0.48 0.04,0.98 0.24,1.5 0.18,0.52 0.54,1.01 1.05,1.48 l 3.72,3.38 c 0.28,0.26 0.64,0.5 1.06,0.7 0.42,0.19 0.88,0.31 1.36,0.35 0.49,0.02 0.99,-0.06 1.51,-0.24 0.52,-0.19 1.02,-0.55 1.49,-1.06 z"
       style="fill:#0000ff;fill-opacity:1;fill-rule:evenodd;stroke:none"
       id="path428" /><path
       d="m 281.87,452.88 c 0.19,-0.34 0.34,-0.73 0.44,-1.18 0.1,-0.46 0.12,-0.93 0.04,-1.41 -0.08,-0.49 -0.27,-0.96 -0.56,-1.42 -0.31,-0.47 -0.77,-0.87 -1.37,-1.22 l -4.38,-2.47 c -0.33,-0.19 -0.73,-0.34 -1.18,-0.43 -0.46,-0.1 -0.93,-0.12 -1.41,-0.03 -0.48,0.07 -0.96,0.26 -1.42,0.56 -0.46,0.29 -0.87,0.75 -1.21,1.36 -0.19,0.33 -0.34,0.73 -0.44,1.19 -0.1,0.46 -0.12,0.93 -0.04,1.42 0.08,0.47 0.27,0.95 0.57,1.41 0.29,0.46 0.75,0.87 1.36,1.21 l 4.37,2.47 1.31,-2.31 -4.38,-2.47 c -0.32,-0.19 -0.53,-0.44 -0.59,-0.73 -0.06,-0.31 -0.02,-0.61 0.15,-0.91 0.18,-0.32 0.42,-0.5 0.74,-0.56 0.3,-0.06 0.6,-0.02 0.89,0.15 l 4.35,2.46 c 0.33,0.18 0.53,0.43 0.6,0.73 0.07,0.29 0.02,0.6 -0.15,0.9 l -1.91,3.38 c -0.18,0.32 -0.42,0.52 -0.72,0.59 -0.3,0.08 -0.61,0.03 -0.9,-0.14 l -5.33,-3 -1.3,2.3 5.33,3.01 c 0.33,0.19 0.73,0.34 1.19,0.44 0.45,0.09 0.92,0.11 1.4,0.04 0.48,-0.09 0.95,-0.27 1.42,-0.57 0.46,-0.3 0.87,-0.76 1.21,-1.37 z"
       style="fill:#0000ff;fill-opacity:1;fill-rule:evenodd;stroke:none"
       id="path430" /><path
       d="m 292.65,461.37 -4.66,-1.39 2.52,-8.43 -2.69,-0.8 -2.53,8.42 -3.47,-1.04 -0.8,2.67 3.47,1.04 -1.08,3.62 2.7,0.81 1.08,-3.62 4.66,1.39 z"
       style="fill:#0000ff;fill-opacity:1;fill-rule:evenodd;stroke:none"
       id="path432" /><path
       d="m 307.88,461.72 c 0.02,-0.38 -0.01,-0.8 -0.12,-1.25 -0.11,-0.46 -0.29,-0.89 -0.57,-1.29 -0.28,-0.4 -0.66,-0.75 -1.12,-1.04 -0.47,-0.29 -1.06,-0.46 -1.76,-0.51 l -5.01,-0.34 -0.18,2.64 5.01,0.34 c 0.38,0.03 0.67,0.17 0.85,0.42 0.19,0.23 0.28,0.53 0.25,0.87 -0.02,0.37 -0.16,0.65 -0.4,0.83 -0.24,0.19 -0.53,0.28 -0.86,0.26 l -5.01,-0.35 c -0.38,-0.02 -0.67,-0.16 -0.86,-0.4 -0.18,-0.25 -0.27,-0.55 -0.25,-0.89 l 0.27,-3.88 c 0.02,-0.37 0.16,-0.65 0.41,-0.84 0.24,-0.19 0.53,-0.27 0.88,-0.25 l 4.99,0.34 0.18,-2.65 -5.01,-0.34 c -0.39,-0.03 -0.81,0.01 -1.26,0.12 -0.45,0.11 -0.89,0.29 -1.28,0.58 -0.41,0.27 -0.76,0.64 -1.05,1.12 -0.28,0.46 -0.45,1.05 -0.5,1.74 l -0.27,3.91 c -0.03,0.38 0.01,0.8 0.12,1.26 0.11,0.45 0.29,0.88 0.58,1.28 0.27,0.4 0.64,0.75 1.12,1.04 0.46,0.29 1.05,0.45 1.75,0.5 l 5.01,0.34 c 0.38,0.03 0.81,0 1.26,-0.11 0.45,-0.11 0.88,-0.3 1.29,-0.57 0.39,-0.28 0.74,-0.66 1.03,-1.12 0.29,-0.47 0.46,-1.06 0.51,-1.76 z"
       style="fill:#0000ff;fill-opacity:1;fill-rule:evenodd;stroke:none"
       id="path434" /><path
       d="m 322.96,465.05 3.89,-5.87 c 0.1,-0.16 0.18,-0.34 0.21,-0.54 0.03,-0.19 0.03,-0.38 -0.03,-0.57 -0.05,-0.2 -0.14,-0.38 -0.27,-0.53 -0.13,-0.16 -0.28,-0.28 -0.46,-0.37 l -6.17,-3.07 -3.87,1.01 7.59,3.79 -4.72,7.16 z"
       style="fill:#000080;fill-opacity:1;fill-rule:evenodd;stroke:none"
       id="path436" /><path
       d="m 345.49,449.46 -5.28,3.38 c -0.32,0.2 -0.61,0.28 -0.87,0.23 -0.27,-0.06 -0.5,-0.24 -0.7,-0.55 l -4.14,-6.47 -2.35,1.5 4.15,6.47 c 0.25,0.41 0.54,0.73 0.84,0.99 0.3,0.25 0.63,0.44 0.96,0.58 0.33,0.13 0.65,0.22 0.98,0.25 0.34,0.02 0.66,0.01 0.97,-0.04 0.32,-0.05 0.61,-0.12 0.9,-0.23 0.27,-0.11 0.52,-0.23 0.74,-0.37 l 5.3,-3.39 z"
       style="fill:#0000ff;fill-opacity:1;fill-rule:evenodd;stroke:none"
       id="path438" /><path
       d="m 351.47,433.67 c -0.15,-0.14 -0.3,-0.25 -0.47,-0.32 -0.18,-0.07 -0.35,-0.1 -0.52,-0.1 -0.18,0 -0.35,0.03 -0.52,0.09 -0.17,0.07 -0.33,0.18 -0.46,0.31 l -4.47,4.44 c -0.24,0.24 -0.47,0.53 -0.69,0.86 -0.23,0.33 -0.41,0.69 -0.55,1.09 -0.15,0.38 -0.25,0.8 -0.31,1.24 -0.06,0.44 -0.05,0.88 0.03,1.35 0.07,0.45 0.24,0.91 0.48,1.38 0.24,0.47 0.57,0.92 1.02,1.37 l 4.53,4.56 1.98,-1.96 -4.54,-4.56 c -0.25,-0.26 -0.43,-0.53 -0.55,-0.83 -0.12,-0.29 -0.18,-0.59 -0.17,-0.89 0.01,-0.29 0.08,-0.59 0.21,-0.87 0.12,-0.29 0.3,-0.54 0.54,-0.78 l 3.46,-3.43 6.2,6.24 1.97,-1.97 z"
       style="fill:#0000ff;fill-opacity:1;fill-rule:evenodd;stroke:none"
       id="path440" /><path
       d="m 357.99,420.48 -1.43,2.39 5.52,3.31 c 0.31,0.18 0.56,0.41 0.75,0.66 0.18,0.26 0.31,0.53 0.37,0.82 0.07,0.29 0.08,0.58 0.03,0.89 -0.06,0.3 -0.17,0.6 -0.34,0.89 l -2.51,4.18 -7.55,-4.51 -1.43,2.39 8.76,5.23 c 0.16,0.1 0.33,0.17 0.52,0.19 0.18,0.02 0.36,0.02 0.53,-0.03 0.17,-0.05 0.33,-0.13 0.48,-0.24 0.15,-0.1 0.27,-0.25 0.37,-0.41 l 3.23,-5.39 c 0.18,-0.3 0.33,-0.64 0.47,-1.01 0.13,-0.37 0.22,-0.77 0.27,-1.19 0.03,-0.42 0.04,-0.84 -0.01,-1.28 -0.05,-0.43 -0.18,-0.87 -0.36,-1.29 -0.2,-0.43 -0.47,-0.83 -0.82,-1.22 -0.35,-0.4 -0.79,-0.75 -1.33,-1.08 z"
       style="fill:#0000ff;fill-opacity:1;fill-rule:evenodd;stroke:none"
       id="path442" /><path
       d="m 374.55,411.92 -3.52,-6.09 c -0.1,-0.17 -0.22,-0.31 -0.38,-0.43 -0.17,-0.11 -0.34,-0.19 -0.54,-0.23 -0.2,-0.05 -0.39,-0.04 -0.59,0 -0.19,0.05 -0.38,0.13 -0.53,0.25 l -5.5,4.16 -0.82,3.92 6.77,-5.11 4.31,7.41 z"
       style="fill:#000080;fill-opacity:1;fill-rule:evenodd;stroke:none"
       id="path444" /><g
       id="g446"><g
         id="g448"
         clip-path="url(#clipPath452)"><text
           transform="matrix(1,0,0,-1,258.67,383.5)"
           style="font-variant:normal;font-weight:normal;font-size:36px;font-family:Audiowide;-inkscape-font-specification:Audiowide-Regular;writing-mode:lr-tb;fill:#000000;fill-opacity:1;fill-rule:nonzero;stroke:none"
           id="text456"><tspan
             x="0 15.264 44.532001 51.911999 79.667999"
             y="0"
             sodipodi:role="line"
             id="tspan454">{K.S}</tspan></text></g></g><g
       id="g458"><g
         id="g460"
         clip-path="url(#clipPath464)" /></g></g></svg>
